<svg id="SvgjsSvg1001" width="1194" height="938" xmlns="http://www.w3.org/2000/svg" version="1.1"
    xmlns:xlink="http://www.w3.org/1999/xlink" xmlns:svgjs="http://svgjs.com/svgjs">
    <defs id="SvgjsDefs1002"></defs>
    <g id="SvgjsG1008">
        <svg xmlns="http://www.w3.org/2000/svg" version="1.0" viewBox="0 0 1194 938" width="1194"
            height="938">
            <path
                d="M11010 8614 c-190 -8 -662 -25 -1050 -39 -388 -14 -946 -34 -1240-44 -294 -11 -611 -22 -705 -26 -403 -13 -727 -25 -825 -30 -58 -3 -296 -12
-530 -20 -234 -8 -497 -17 -585 -20 -244 -8 -1202 -44 -1355 -50 -74 -3 -331
-12 -570 -20 -483 -16 -614 -21 -965 -35 -305 -12 -691 -26 -1260 -45 -247 -8
-610 -22 -805 -30 -195 -8 -508 -19 -695 -26 -241 -8 -347 -15 -365 -24 -55
-29 -55 -25 -31 -502 12 -241 33 -672 46 -958 14 -286 32 -657 40 -825 8 -168
24 -498 35 -735 11 -236 24 -513 30 -615 6 -102 21 -426 35 -720 13 -294 36
-769 50 -1055 13 -286 34 -711 45 -945 24 -504 24 -507 51 -536 28 -30 38 -32
294 -44 121 -5 265 -12 320 -15 55 -3 251 -12 435 -20 184 -8 463 -22 620 -30
157 -8 438 -22 625 -30 187 -9 563 -27 835 -40 272 -14 698 -34 945 -45 248
-11 529 -25 625 -30 96 -6 468 -24 825 -40 358 -16 684 -32 725 -35 70 -5 219
-12 1060 -50 184 -8 367 -17 405 -20 63 -4 275 -15 610 -30 422 -20 979 -46
1145 -55 107 -5 438 -21 735 -35 297 -14 666 -32 820 -40 154 -8 328 -15 388
-15 115 0 136 8 156 63 5 12 2 132 -5 272 -8 138 -30 583 -49 990 -19 407 -39
826 -45 930 -5 105 -19 393 -30 640 -11 248 -24 529 -30 625 -6 96 -24 470
-40 830 -16 360 -32 687 -35 725 -3 39 -17 318 -30 620 -14 303 -36 768 -50
1035 -13 267 -29 609 -35 760 -6 151 -13 290 -16 309 -3 19 -18 47 -34 63 -33
33 5 32 -520 12z"
                transform="matrix(.1 0 0 -.1 0 938)" fill="#fbe46b" class="color000 svgShape"></path>
        </svg>
    </g>
</svg>