<?xml version="1.0" encoding="utf-8"?>
<svg viewBox="0 0 1137 340" fill="none" xmlns="http://www.w3.org/2000/svg" xmlns:bx="https://boxy-svg.com">
  <defs>
    <filter id="drop-shadow-filter-0" color-interpolation-filters="sRGB" x="-50%" y="-50%" width="200%" height="200%" bx:preset="drop-shadow 1 6 5 0 0.5 rgba(251,228,107,1)">
      <feGaussianBlur in="SourceAlpha" stdDeviation="0"/>
      <feOffset dx="6" dy="5"/>
      <feComponentTransfer result="offsetblur">
        <feFuncA id="spread-ctrl" type="linear" slope="1"/>
      </feComponentTransfer>
      <feFlood flood-color="rgba(251,228,107,1)"/>
      <feComposite in2="offsetblur" operator="in"/>
      <feMerge>
        <feMergeNode/>
        <feMergeNode in="SourceGraphic"/>
      </feMerge>
    </filter>
  </defs>
  <path d="M 248.144 189.585 Q 247.674 193.342 247.674 195.565 Q 247.674 197.787 248.216 199.666 Q 248.758 201.545 249.77 202.918 Q 251.938 205.844 255.262 205.844 Q 261.621 205.844 261.621 198.835 Q 261.621 193.198 255.081 186.875 L 251.323 183.225 Q 246.373 178.456 244.567 175.565 Q 240.989 169.856 240.989 164.219 Q 240.989 159.631 243.952 156.523 Q 247.529 152.729 254.25 152.729 Q 256.888 152.729 258.225 152.982 Q 260.718 153.452 261.549 153.452 Q 263.645 153.452 264.801 152.151 Q 265.235 151.681 265.74 150.923 Q 268.378 152.404 268.378 161.798 Q 268.378 167.797 267.186 170.651 Q 266.788 171.627 266.282 171.88 Q 265.704 166.423 262.741 162.124 Q 259.273 157.065 254.72 157.065 Q 250.818 157.065 249.914 160.642 Q 249.661 161.654 249.661 163.153 Q 249.661 164.653 250.565 166.568 Q 251.468 168.483 252.931 170.38 Q 254.395 172.277 256.31 174.192 Q 262.091 180.118 263.988 182.214 Q 265.885 184.309 267.366 186.549 Q 270.618 191.572 270.618 196.269 Q 270.618 201.942 266.21 205.664 Q 261.657 209.458 254.503 209.458 Q 248.577 209.458 244.314 206.495 Q 239.616 203.243 239.616 197.895 Q 241.026 192.873 245.759 190.524 Q 247.024 189.874 248.144 189.585 Z" transform="matrix(1.609903, -0.140848, 0.13349, 1.525795, -346.968847, -79.644365)" style="fill: rgb(255, 255, 255); paint-order: stroke; stroke: rgb(0, 0, 0); stroke-linecap: round; stroke-linejoin: round; stroke-width: 12.0842px; text-transform: uppercase; white-space: pre; filter: url(#drop-shadow-filter-0);"/>
  <path d="M 302.593 190.199 L 302.774 176.324 Q 302.774 161.762 301.69 157.715 Q 301.184 155.764 300.479 154.861 Q 299.775 153.958 299.341 153.452 L 311.193 153.452 L 310.434 154.464 Q 308.808 156.848 308.627 159.847 Q 308.447 162.846 308.356 165.918 Q 308.266 168.989 308.194 172.024 Q 308.121 177.119 308.121 183.406 L 308.121 187.814 Q 308.121 199.485 304.364 204.544 Q 300.642 209.458 292.223 209.458 Q 275.927 209.458 275.999 188.537 L 276.035 161.473 Q 276.035 155.764 274.012 153.452 L 287.706 153.452 Q 285.574 156.017 285.574 160.751 Q 285.574 163.497 285.538 166.387 L 285.394 177.95 Q 285.358 180.804 285.358 183.839 Q 285.358 194.715 286.008 197.624 Q 286.658 200.533 287.598 202.159 Q 289.766 205.844 294.03 205.844 Q 300.606 205.844 302.123 196.233 Q 302.593 193.379 302.593 190.199 Z" transform="matrix(1.609903, -0.140848, 0.13349, 1.525795, -346.968847, -79.644365)" style="fill: rgb(255, 255, 255); paint-order: stroke; stroke: rgb(0, 0, 0); stroke-linecap: round; stroke-linejoin: round; stroke-width: 12.0842px; text-transform: uppercase; white-space: pre; filter: url(#drop-shadow-filter-0);"/>
  <path d="M 323.254 169.386 Q 323.181 173.144 323.181 177.95 Q 323.181 184.779 323.434 193.577 Q 323.687 202.376 323.832 203.586 Q 323.976 204.797 324.193 205.7 Q 324.554 207.181 325.313 208.735 L 315.63 208.735 Q 316.714 206.531 316.948 204.417 Q 317.183 202.303 317.328 200.208 Q 317.617 195.944 317.617 188.754 Q 317.617 180.046 317.328 172.855 L 316.93 162.919 Q 316.714 157.426 315.196 155.114 Q 314.582 154.247 313.678 153.452 L 324.916 153.452 Q 327.048 158.366 329.432 163.208 L 334.346 172.819 L 344.897 192.222 Q 344.933 189.946 344.933 187.344 L 344.933 181.708 Q 344.933 163.641 342.729 155.62 Q 342.296 154.138 341.79 153.452 L 352.666 153.416 Q 350.859 157.029 350.389 173.758 Q 350.317 176.36 350.317 178.745 L 350.353 181.78 L 350.353 196.522 Q 350.353 205.881 350.498 208.735 L 344.644 208.735 L 334.166 189.223 Z" transform="matrix(1.609903, -0.140848, 0.13349, 1.525795, -346.968847, -79.644365)" style="fill: rgb(255, 255, 255); paint-order: stroke; stroke: rgb(0, 0, 0); stroke-linecap: round; stroke-linejoin: round; stroke-width: 12.0842px; text-transform: uppercase; white-space: pre; filter: url(#drop-shadow-filter-0);"/>
  <path d="M 407.684 191.066 L 407.648 186.369 Q 407.648 182.286 406.853 180.931 Q 406.058 179.576 405.191 178.943 Q 404.324 178.311 403.059 177.661 L 418.921 177.661 Q 416.645 179.756 416.031 183.008 Q 415.453 186.116 415.453 192.62 Q 415.453 205.266 416.97 209.458 Q 416.464 209.494 415.959 209.494 L 414.983 209.494 Q 399.085 209.494 390.882 199.268 Q 383.042 189.476 383.042 171.482 Q 383.042 162.593 388.281 157.86 Q 393.123 153.452 401.253 153.452 L 407.612 153.524 Q 412.634 153.524 414.622 152.296 Q 415.453 151.754 416.031 150.923 Q 416.934 152.657 416.934 155.692 Q 416.934 158.727 416.753 160.588 Q 416.573 162.449 416.211 164.219 Q 415.453 167.977 413.863 170.073 Q 412.49 162.846 410.43 160.1 Q 408.118 157.065 403.204 157.065 Q 396.989 157.065 394.423 162.051 Q 392.581 165.701 392.581 173.108 Q 392.581 183.261 395.724 192.584 Q 397.928 199.124 401.216 201.87 Q 402.915 203.315 404.739 203.315 Q 406.564 203.315 407.07 202.267 Q 407.576 201.219 407.612 198.69 Q 407.684 193.704 407.684 191.066 Z" transform="matrix(1.609903, -0.140848, 0.13349, 1.525795, -346.968847, -79.644365)" style="fill: rgb(255, 255, 255); paint-order: stroke; stroke: rgb(0, 0, 0); stroke-linecap: round; stroke-linejoin: round; stroke-width: 12.0842px; text-transform: uppercase; white-space: pre; filter: url(#drop-shadow-filter-0);"/>
  <path d="M 441.651 205.844 Q 448.588 205.844 450.612 188.934 Q 451.298 183.225 451.298 175.493 Q 451.298 156.342 441.579 156.342 Q 431.859 156.342 431.859 175.493 Q 431.859 198.076 437.676 204.002 Q 439.483 205.844 441.651 205.844 Z M 441.579 209.458 Q 431.967 209.458 427.089 200.424 Q 422.392 191.716 422.392 175.493 Q 422.392 158.619 432.762 154.247 Q 436.412 152.729 441.579 152.729 Q 456.393 152.729 459.681 165.881 Q 460.765 170.109 460.765 176.757 Q 460.765 183.406 459.609 189.711 Q 458.453 196.016 456.068 200.424 Q 451.19 209.458 441.579 209.458 Z" transform="matrix(1.609903, -0.140848, 0.13349, 1.525795, -346.968847, -79.644365)" style="fill: rgb(255, 255, 255); paint-order: stroke; stroke: rgb(0, 0, 0); stroke-linecap: round; stroke-linejoin: round; stroke-width: 12.0842px; text-transform: uppercase; white-space: pre; filter: url(#drop-shadow-filter-0);"/>
  <path d="M 476.66 163.172 L 476.696 199.16 Q 476.732 201.219 477.165 202.267 Q 477.599 203.315 478.972 203.315 Q 485.404 203.315 488.981 195.149 Q 492.45 187.2 492.45 173.108 Q 492.45 165.701 490.715 161.871 Q 488.367 156.704 482.549 156.704 Q 478.828 156.704 477.978 157.571 Q 477.129 158.438 476.894 159.721 Q 476.66 161.004 476.66 163.172 Z M 466.615 208.735 Q 467.771 205.989 467.97 204.146 Q 468.168 202.303 468.313 200.208 Q 468.602 195.944 468.602 188.754 Q 468.602 180.046 468.313 172.855 L 467.915 162.919 Q 467.771 159.161 467.265 157.679 Q 466.47 155.331 464.663 153.452 L 484.5 153.452 Q 496.858 153.452 500.652 163.172 Q 501.989 166.604 501.989 171.482 Q 501.989 198.762 483.489 206.242 Q 477.238 208.771 468.783 208.771 Q 468.241 208.771 467.699 208.771 Q 467.157 208.771 466.615 208.735 Z" transform="matrix(1.609903, -0.140848, 0.13349, 1.525795, -346.968847, -79.644365)" style="fill: rgb(255, 255, 255); paint-order: stroke; stroke: rgb(0, 0, 0); stroke-linecap: round; stroke-linejoin: round; stroke-width: 12.0842px; text-transform: uppercase; white-space: pre; filter: url(#drop-shadow-filter-0);"/>
  <path d="M 542.186 169.386 Q 542.113 173.144 542.113 177.95 Q 542.113 184.779 542.366 193.577 Q 542.619 202.376 542.764 203.586 Q 542.908 204.797 543.125 205.7 Q 543.486 207.181 544.245 208.735 L 534.562 208.735 Q 535.646 206.531 535.88 204.417 Q 536.115 202.303 536.26 200.208 Q 536.549 195.944 536.549 188.754 Q 536.549 180.046 536.26 172.855 L 535.862 162.919 Q 535.646 157.426 534.128 155.114 Q 533.514 154.247 532.61 153.452 L 543.848 153.452 Q 545.98 158.366 548.364 163.208 L 553.278 172.819 L 563.829 192.222 Q 563.865 189.946 563.865 187.344 L 563.865 181.708 Q 563.865 163.641 561.661 155.62 Q 561.228 154.138 560.722 153.452 L 571.598 153.416 Q 569.791 157.029 569.321 173.758 Q 569.249 176.36 569.249 178.745 L 569.285 181.78 L 569.285 196.522 Q 569.285 205.881 569.43 208.735 L 563.576 208.735 L 553.098 189.223 Z" transform="matrix(1.609903, -0.140848, 0.13349, 1.525795, -346.968847, -79.644365)" style="fill: rgb(255, 255, 255); paint-order: stroke; stroke: rgb(0, 0, 0); stroke-linecap: round; stroke-linejoin: round; stroke-width: 12.0842px; text-transform: uppercase; white-space: pre; filter: url(#drop-shadow-filter-0);"/>
  <path d="M 590.24 153.452 Q 588.903 156.812 588.686 160.191 Q 588.469 163.569 588.361 165.99 Q 588.253 168.411 588.18 171.012 Q 588.072 177.083 588.072 182.069 Q 588.072 202.52 589.59 207.145 Q 589.843 207.94 590.24 208.735 L 577.774 208.735 Q 578.894 206.278 579.111 204.291 Q 579.328 202.303 579.509 199.557 Q 579.942 193.884 579.942 186.477 Q 579.942 179.07 579.906 176.342 Q 579.87 173.614 579.798 171.012 Q 579.545 158.33 578.28 154.897 L 577.774 153.452 Z" transform="matrix(1.609903, -0.140848, 0.13349, 1.525795, -346.968847, -79.644365)" style="fill: rgb(255, 255, 255); paint-order: stroke; stroke: rgb(0, 0, 0); stroke-linecap: round; stroke-linejoin: round; stroke-width: 12.0842px; text-transform: uppercase; white-space: pre; filter: url(#drop-shadow-filter-0);"/>
  <path d="M 622.458 161.437 Q 622.458 161.437 622.811 160.678 Q 623.163 159.92 623.542 158.438 Q 623.922 156.957 623.922 155.566 Q 623.922 154.174 623.38 153.416 L 634.545 153.416 Q 633.714 154.608 633.136 156.053 L 631.799 159.341 Q 628.511 167.291 622.224 171.301 Q 622.621 183.37 627.391 194.065 Q 631.69 203.857 637.508 208.735 L 625.042 208.735 Q 620.019 203.387 617.924 189.296 Q 617.129 184.129 616.587 177.155 Q 616.442 175.312 615.485 174.318 Q 614.527 173.325 612.793 173.325 Q 611.059 173.325 610.372 173.65 Q 609.685 173.975 609.324 174.626 Q 608.71 175.746 608.71 179.829 Q 608.71 203.351 609.866 207.217 Q 610.083 207.94 610.408 208.735 L 598.304 208.735 Q 599.46 205.989 599.659 204.146 Q 599.857 202.303 600.002 200.208 Q 600.291 195.944 600.291 188.754 Q 600.291 180.118 600.002 172.927 L 599.604 162.991 Q 599.388 157.535 598.231 155.295 Q 597.762 154.391 597.075 153.452 L 611.239 153.452 Q 609.794 155.331 609.36 156.957 Q 608.71 159.594 608.71 162.214 Q 608.71 164.834 608.818 165.99 Q 608.927 167.146 609.324 167.905 Q 610.155 169.35 612.287 169.368 Q 614.419 169.386 615.846 168.718 Q 617.273 168.049 618.502 166.929 Q 619.73 165.809 620.742 164.382 Q 621.754 162.955 622.458 161.437 Z" transform="matrix(1.609903, -0.140848, 0.13349, 1.525795, -346.968847, -79.644365)" style="fill: rgb(255, 255, 255); paint-order: stroke; stroke: rgb(0, 0, 0); stroke-linecap: round; stroke-linejoin: round; stroke-width: 12.0842px; text-transform: uppercase; white-space: pre; filter: url(#drop-shadow-filter-0);"/>
  <path d="M 660.954 208.735 Q 661.424 206.459 661.424 205.104 Q 661.424 203.749 661.37 203.062 Q 661.315 202.376 661.225 201.599 Q 661.135 200.822 661.008 199.864 Q 660.882 198.907 660.773 197.642 Q 659.942 189.006 654.884 183.442 Q 652.644 180.985 650.042 179.702 Q 647.44 178.42 645.76 178.42 Q 644.08 178.42 643.177 178.636 Q 641.153 184.707 641.153 191.319 Q 641.153 197.173 641.768 200.063 Q 642.743 204.399 644.767 208.771 L 633.963 208.771 Q 634.83 206.603 634.83 199.648 Q 634.83 192.692 635.878 186.64 Q 636.926 180.588 638.606 175.854 Q 640.286 171.121 642.364 167.562 Q 644.441 164.003 646.519 161.347 Q 648.597 158.691 650.439 156.794 Q 652.282 154.897 653.511 153.452 L 664.893 153.452 Q 663.339 155.222 663.339 158.402 Q 663.339 159.847 663.809 163.135 L 664.712 169.712 Q 669.662 203.821 673.564 208.735 Z M 644.658 174.806 Q 646.067 174.264 647.621 174.264 Q 649.175 174.264 650.421 174.481 Q 651.668 174.698 652.896 175.204 Q 655.534 176.215 657.305 178.42 Q 655.534 169.133 655.137 167.074 L 653.872 160.751 L 651.813 163.208 Q 647.477 168.411 644.658 174.806 Z" transform="matrix(1.609903, -0.140848, 0.13349, 1.525795, -346.968847, -79.644365)" style="fill: rgb(255, 255, 255); paint-order: stroke; stroke: rgb(0, 0, 0); stroke-linecap: round; stroke-linejoin: round; stroke-width: 12.0842px; text-transform: uppercase; white-space: pre; filter: url(#drop-shadow-filter-0);"/>
  <path d="M 698.515 169.712 Q 697.648 167.616 697.648 164.761 Q 697.648 161.907 697.865 160.082 Q 698.081 158.257 698.443 156.776 Q 699.31 153.452 700.574 153.452 L 732.407 153.452 Q 734.503 153.452 735.226 159.667 Q 735.406 161.401 735.406 163.244 Q 735.406 167.58 734.467 169.712 Q 731.36 160.064 726.409 157.354 Q 725.289 156.704 724.205 156.704 Q 723.121 156.704 722.507 157.264 Q 721.893 157.824 721.495 159.052 Q 720.845 161.22 720.845 164.256 L 720.845 177.805 L 720.881 188.862 L 720.881 199.34 Q 720.881 202.881 721.802 204.562 Q 722.724 206.242 723.681 207.109 Q 724.639 207.976 725.94 208.735 L 707.476 208.735 Q 710.077 206.603 710.8 205.23 Q 712.137 202.737 712.137 199.34 L 712.137 166.785 Q 712.137 161.112 711.703 159.468 Q 711.27 157.824 710.656 157.264 Q 710.041 156.704 708.957 156.704 Q 707.873 156.704 706.753 157.336 Q 705.633 157.968 704.567 158.998 Q 703.501 160.028 702.544 161.383 Q 701.586 162.738 700.791 164.183 Q 699.238 167.038 698.515 169.712 Z" transform="matrix(1.609903, -0.140848, 0.13349, 1.525795, -346.968847, -79.644365)" style="fill: rgb(255, 255, 255); paint-order: stroke; stroke: rgb(0, 0, 0); stroke-linecap: round; stroke-linejoin: round; stroke-width: 12.0842px; text-transform: uppercase; white-space: pre; filter: url(#drop-shadow-filter-0);"/>
  <path d="M 763.658 187.236 L 763.622 177.336 Q 763.622 175.312 762.972 174.589 Q 761.779 173.253 758.564 173.253 L 752.855 173.253 Q 748.374 173.253 747.941 175.782 Q 747.832 176.505 747.832 177.336 L 747.796 188.175 Q 747.796 202.195 749.241 205.736 Q 749.819 207.109 751.048 208.735 L 737.498 208.735 Q 738.654 205.989 738.853 204.146 Q 739.052 202.303 739.269 199.593 Q 739.666 193.921 739.666 186.622 Q 739.666 179.323 739.63 176.559 Q 739.594 173.795 739.558 171.157 Q 739.305 160.209 738.871 158.023 Q 738.438 155.837 738.149 155.078 L 737.498 153.452 L 751.048 153.452 Q 748.446 156.342 748.157 161.256 Q 748.049 162.738 748.049 164.364 Q 748.049 165.99 748.356 166.911 Q 748.663 167.833 749.386 168.266 Q 750.361 168.917 753.975 168.917 L 757.407 168.917 Q 761.093 168.917 761.96 168.375 Q 763.405 167.435 763.405 164.292 Q 763.405 156.595 760.37 153.452 L 773.92 153.452 Q 772.836 155.837 772.601 157.86 Q 772.366 159.883 772.258 161.744 Q 772.15 163.605 772.041 166.062 Q 771.933 168.519 771.86 171.157 Q 771.752 177.299 771.752 182.286 Q 771.752 202.556 773.27 207.109 Q 773.523 207.868 773.92 208.735 L 760.37 208.735 Q 762.177 206.314 762.574 204.562 Q 762.972 202.809 763.189 200.424 Q 763.658 195.836 763.658 187.236 Z" transform="matrix(1.609903, -0.140848, 0.13349, 1.525795, -346.968847, -79.644365)" style="fill: rgb(255, 255, 255); paint-order: stroke; stroke: rgb(0, 0, 0); stroke-linecap: round; stroke-linejoin: round; stroke-width: 12.0842px; text-transform: uppercase; white-space: pre; filter: url(#drop-shadow-filter-0);"/>
  <path d="M 807.958 195.366 Q 808.933 196.703 808.933 199.232 Q 808.933 201.761 808.717 203.261 Q 808.5 204.76 808.03 205.989 Q 806.946 208.735 805.176 208.735 L 775.908 208.735 Q 778.69 207.254 779.594 205.881 Q 781.292 203.315 781.292 199.377 Q 781.256 189.729 781.256 181.924 L 781.256 162.919 Q 781.256 157.535 779.557 155.114 Q 778.907 154.247 778.004 153.452 L 805.176 153.452 Q 807.633 154.319 808.536 159.522 Q 808.789 160.967 808.789 162.34 Q 808.789 165.159 807.958 166.821 L 806.007 162.919 Q 804.055 159.089 800.406 157.788 Q 798.383 157.065 795.853 157.065 Q 793.324 157.065 792.24 157.228 Q 791.156 157.39 790.578 158.005 Q 789.638 159.052 789.638 161.997 Q 789.638 164.942 789.783 166.08 Q 789.927 167.218 790.469 167.941 Q 791.59 169.35 795.203 169.35 L 806.549 169.35 Q 805.718 171.446 804.85 172.313 Q 803.116 174.048 800.153 174.048 Q 798.997 174.048 797.949 173.795 Q 795.998 173.325 794.516 173.325 Q 793.035 173.325 792.077 173.596 Q 791.12 173.867 790.578 174.445 Q 789.638 175.457 789.638 178.094 L 789.638 195.33 Q 789.638 202.123 790.397 203.387 Q 791.156 204.652 792.24 204.887 Q 793.324 205.122 795.853 205.122 Q 798.383 205.122 800.442 204.399 Q 802.502 203.676 803.893 202.376 Q 805.284 201.075 806.187 199.286 Q 807.091 197.498 807.958 195.366 Z" transform="matrix(1.609903, -0.140848, 0.13349, 1.525795, -346.968847, -79.644365)" style="fill: rgb(255, 255, 255); paint-order: stroke; stroke: rgb(0, 0, 0); stroke-linecap: round; stroke-linejoin: round; stroke-width: 12.0842px; text-transform: uppercase; white-space: pre; filter: url(#drop-shadow-filter-0);"/>
  <path d="M 248.397 232.59 Q 248.252 237.865 248.252 243.502 Q 248.252 251.198 248.505 260.087 Q 248.758 268.976 248.884 270.186 Q 249.011 271.397 249.228 272.3 Q 249.625 273.962 250.528 275.335 L 240.447 275.335 Q 241.82 273.384 242.091 271.144 Q 242.362 268.903 242.507 266.808 Q 242.796 262.544 242.796 255.354 Q 242.796 246.646 242.507 239.455 L 242.11 229.519 Q 241.893 224.026 240.339 221.714 Q 239.761 220.847 238.858 220.052 L 252.986 220.052 Q 254.395 226.23 256.49 233.168 L 263.067 254.161 L 273.148 220.052 L 287.239 220.052 Q 285.469 221.605 284.927 223.231 Q 284.132 225.725 284.024 229.013 L 283.771 235.408 Q 283.301 246.646 283.301 255.354 Q 283.301 269.951 284.638 273.89 Q 284.891 274.612 285.288 275.335 L 273.906 275.335 Q 274.882 273.42 275.008 271.198 Q 275.135 268.976 275.243 265.073 Q 275.677 252.246 275.677 246.393 Q 275.677 236.745 275.496 232.048 L 262.199 275.335 L 255.153 253.149 Z" transform="matrix(1.609903, -0.140848, 0.13349, 1.525795, -346.968847, -79.644365)" style="fill: rgb(255, 255, 255); paint-order: stroke; stroke: rgb(0, 0, 0); stroke-linecap: round; stroke-linejoin: round; stroke-width: 12.0842px; text-transform: uppercase; white-space: pre; filter: url(#drop-shadow-filter-0);"/>
  <path d="M 298.905 261.424 L 298.941 253.872 L 298.941 249.753 Q 298.941 246.501 296.267 240.503 Q 294.207 235.986 293.485 234.541 L 292.292 232.156 Q 287.631 222.4 284.126 220.052 L 298.688 220.052 Q 298.435 220.774 298.435 221.895 Q 298.435 223.015 298.616 224.261 Q 298.796 225.508 299.085 226.809 Q 299.627 229.302 300.494 231.397 L 302.229 235.589 Q 303.132 237.685 304.469 239.853 Q 306.167 237.287 307.179 234.83 L 308.552 231.434 Q 310.612 226.194 310.612 221.461 Q 310.612 220.666 310.503 220.052 L 320.44 220.052 Q 318.452 222.147 316.284 226.158 Q 314.116 230.169 313.249 231.976 L 311.407 235.986 Q 307.649 244.297 307.649 249.283 L 307.649 265.796 Q 307.649 269.481 308.516 271.107 Q 309.383 272.733 310.359 273.637 Q 311.334 274.54 312.707 275.335 L 294.243 275.335 Q 298.905 272.95 298.905 266.627 Z" transform="matrix(1.609903, -0.140848, 0.13349, 1.525795, -346.968847, -79.644365)" style="fill: rgb(255, 255, 255); paint-order: stroke; stroke: rgb(0, 0, 0); stroke-linecap: round; stroke-linejoin: round; stroke-width: 12.0842px; text-transform: uppercase; white-space: pre; filter: url(#drop-shadow-filter-0);"/>
  <path d="M 316.029 236.312 Q 315.162 234.216 315.162 231.361 Q 315.162 228.507 315.378 226.682 Q 315.595 224.857 315.957 223.376 Q 316.824 220.052 318.088 220.052 L 349.921 220.052 Q 352.017 220.052 352.74 226.267 Q 352.92 228.001 352.92 229.844 Q 352.92 234.18 351.981 236.312 Q 348.874 226.664 343.923 223.954 Q 342.803 223.304 341.719 223.304 Q 340.635 223.304 340.021 223.864 Q 339.407 224.424 339.009 225.652 Q 338.359 227.82 338.359 230.855 L 338.359 244.405 L 338.395 255.462 L 338.395 265.94 Q 338.395 269.481 339.316 271.162 Q 340.238 272.842 341.195 273.709 Q 342.153 274.576 343.454 275.335 L 324.99 275.335 Q 327.591 273.203 328.314 271.83 Q 329.651 269.337 329.651 265.94 L 329.651 233.385 Q 329.651 227.712 329.217 226.068 Q 328.784 224.424 328.169 223.864 Q 327.555 223.304 326.471 223.304 Q 325.387 223.304 324.267 223.936 Q 323.147 224.568 322.081 225.598 Q 321.015 226.628 320.058 227.983 Q 319.1 229.338 318.305 230.783 Q 316.751 233.638 316.029 236.312 Z" transform="matrix(1.609903, -0.140848, 0.13349, 1.525795, -346.968847, -79.644365)" style="fill: rgb(255, 255, 255); paint-order: stroke; stroke: rgb(0, 0, 0); stroke-linecap: round; stroke-linejoin: round; stroke-width: 12.0842px; text-transform: uppercase; white-space: pre; filter: url(#drop-shadow-filter-0);"/>
  <path d="M 381.172 253.836 L 381.136 243.936 Q 381.136 241.912 380.486 241.189 Q 379.293 239.853 376.078 239.853 L 370.369 239.853 Q 365.888 239.853 365.455 242.382 Q 365.346 243.105 365.346 243.936 L 365.31 254.775 Q 365.31 268.795 366.755 272.336 Q 367.333 273.709 368.562 275.335 L 355.012 275.335 Q 356.168 272.589 356.367 270.746 Q 356.566 268.903 356.783 266.193 Q 357.18 260.521 357.18 253.222 Q 357.18 245.923 357.144 243.159 Q 357.108 240.395 357.072 237.757 Q 356.819 226.809 356.385 224.623 Q 355.952 222.437 355.663 221.678 L 355.012 220.052 L 368.562 220.052 Q 365.96 222.942 365.671 227.856 Q 365.563 229.338 365.563 230.964 Q 365.563 232.59 365.87 233.511 Q 366.177 234.433 366.9 234.866 Q 367.875 235.517 371.489 235.517 L 374.921 235.517 Q 378.607 235.517 379.474 234.975 Q 380.919 234.035 380.919 230.892 Q 380.919 223.195 377.884 220.052 L 391.434 220.052 Q 390.35 222.437 390.115 224.46 Q 389.88 226.483 389.772 228.344 Q 389.664 230.205 389.555 232.662 Q 389.447 235.119 389.374 237.757 Q 389.266 243.899 389.266 248.886 Q 389.266 269.156 390.784 273.709 Q 391.037 274.468 391.434 275.335 L 377.884 275.335 Q 379.691 272.914 380.088 271.162 Q 380.486 269.409 380.703 267.024 Q 381.172 262.436 381.172 253.836 Z" transform="matrix(1.609903, -0.140848, 0.13349, 1.525795, -346.968847, -79.644365)" style="fill: rgb(255, 255, 255); paint-order: stroke; stroke: rgb(0, 0, 0); stroke-linecap: round; stroke-linejoin: round; stroke-width: 12.0842px; text-transform: uppercase; white-space: pre; filter: url(#drop-shadow-filter-0);"/>
  <path d="M 410.91 220.052 Q 409.573 223.412 409.356 226.791 Q 409.14 230.169 409.031 232.59 Q 408.923 235.011 408.851 237.612 Q 408.742 243.683 408.742 248.669 Q 408.742 269.12 410.26 273.745 Q 410.513 274.54 410.91 275.335 L 398.444 275.335 Q 399.564 272.878 399.781 270.891 Q 399.998 268.903 400.179 266.157 Q 400.612 260.484 400.612 253.077 Q 400.612 245.67 400.576 242.942 Q 400.54 240.214 400.468 237.612 Q 400.215 224.93 398.95 221.497 L 398.444 220.052 Z" transform="matrix(1.609903, -0.140848, 0.13349, 1.525795, -346.968847, -79.644365)" style="fill: rgb(255, 255, 255); paint-order: stroke; stroke: rgb(0, 0, 0); stroke-linecap: round; stroke-linejoin: round; stroke-width: 12.0842px; text-transform: uppercase; white-space: pre; filter: url(#drop-shadow-filter-0);"/>
  <path d="M 447.547 217.522 Q 448.595 219.004 448.595 222.057 Q 448.595 225.11 448.396 227.007 Q 448.197 228.904 447.8 230.675 Q 446.933 234.649 445.379 236.673 Q 444.042 229.699 441.91 226.7 Q 439.67 223.665 436.075 223.665 Q 432.48 223.665 430.456 225.038 Q 428.433 226.411 427.349 228.651 Q 425.542 232.373 425.542 239.618 Q 425.542 246.862 427.186 252.878 Q 428.83 258.895 431.865 263.23 Q 438.261 272.444 448.523 272.444 Q 448.378 274.07 446.824 275.263 Q 446.355 275.624 445.813 275.696 Q 432.696 275.696 424.422 266.049 Q 415.642 255.787 415.642 238.082 Q 415.642 228.832 421.062 224.171 Q 425.867 220.052 434.214 220.052 L 440.248 220.124 Q 444.512 220.124 446.246 218.896 Q 446.969 218.354 447.547 217.522 Z" transform="matrix(1.609903, -0.140848, 0.13349, 1.525795, -346.968847, -79.644365)" style="fill: rgb(255, 255, 255); paint-order: stroke; stroke: rgb(0, 0, 0); stroke-linecap: round; stroke-linejoin: round; stroke-width: 12.0842px; text-transform: uppercase; white-space: pre; filter: url(#drop-shadow-filter-0);"/>
  <path d="M 477.107 275.335 Q 477.576 273.059 477.576 271.704 Q 477.576 270.349 477.522 269.662 Q 477.468 268.976 477.378 268.199 Q 477.287 267.422 477.161 266.464 Q 477.034 265.507 476.926 264.242 Q 476.095 255.606 471.036 250.042 Q 468.796 247.585 466.195 246.302 Q 463.593 245.02 461.913 245.02 Q 460.233 245.02 459.329 245.236 Q 457.306 251.307 457.306 257.919 Q 457.306 263.772 457.92 266.663 Q 458.896 270.999 460.919 275.371 L 450.116 275.371 Q 450.983 273.203 450.983 266.248 Q 450.983 259.292 452.031 253.24 Q 453.078 247.188 454.759 242.454 Q 456.439 237.721 458.516 234.162 Q 460.594 230.603 462.672 227.947 Q 464.749 225.291 466.592 223.394 Q 468.435 221.497 469.663 220.052 L 481.045 220.052 Q 479.492 221.822 479.492 225.002 Q 479.492 226.447 479.961 229.735 L 480.865 236.312 Q 485.815 270.421 489.717 275.335 Z M 460.811 241.406 Q 462.22 240.864 463.774 240.864 Q 465.327 240.864 466.574 241.081 Q 467.821 241.298 469.049 241.804 Q 471.687 242.815 473.457 245.02 Q 471.687 235.733 471.289 233.674 L 470.025 227.351 L 467.965 229.808 Q 463.629 235.011 460.811 241.406 Z" transform="matrix(1.609903, -0.140848, 0.13349, 1.525795, -346.968847, -79.644365)" style="fill: rgb(255, 255, 255); paint-order: stroke; stroke: rgb(0, 0, 0); stroke-linecap: round; stroke-linejoin: round; stroke-width: 12.0842px; text-transform: uppercase; white-space: pre; filter: url(#drop-shadow-filter-0);"/>
  <path d="M 519.591 261.966 Q 520.567 263.375 520.567 265.362 Q 520.567 267.35 520.296 268.795 Q 520.025 270.24 519.555 271.541 Q 518.471 274.396 516.809 275.335 L 487.758 275.335 Q 490.613 273.564 491.48 272.264 Q 493.142 269.807 493.142 265.904 Q 493.106 256.293 493.106 248.524 L 493.106 229.591 Q 493.106 224.352 491.371 221.895 Q 490.757 220.991 489.854 220.052 L 504.704 220.052 Q 502.573 223.123 502.283 226.375 Q 502.211 227.459 502.211 228.76 L 502.211 261.857 Q 502.211 268.614 502.934 269.933 Q 503.656 271.252 504.668 271.487 Q 505.68 271.722 507.74 271.722 Q 509.799 271.722 511.642 270.999 Q 513.485 270.276 514.93 268.976 Q 517.387 266.735 519.591 261.966 Z" transform="matrix(1.609903, -0.140848, 0.13349, 1.525795, -346.968847, -79.644365)" style="fill: rgb(255, 255, 255); paint-order: stroke; stroke: rgb(0, 0, 0); stroke-linecap: round; stroke-linejoin: round; stroke-width: 12.0842px; text-transform: uppercase; white-space: pre; filter: url(#drop-shadow-filter-0);"/>
  <path d="M 593.074 225.652 Q 593.074 222.147 590.834 220.052 L 603.661 220.052 Q 601.457 221.967 600.084 225.399 Q 599.614 226.556 599.144 227.893 Q 598.674 229.23 598.06 231.687 L 596.759 237.323 Q 596.001 240.575 595.206 244.405 Q 591.05 264.278 590.526 266.609 Q 590.003 268.939 590.003 271.053 Q 590.003 273.167 590.942 275.371 L 578.296 275.335 Q 579.163 273.998 579.325 272.824 Q 579.488 271.649 579.488 269.951 Q 579.488 268.253 578.91 264.893 Q 578.332 261.532 577.392 257.232 L 572.803 237.721 Q 567.311 261.93 566.57 265.435 Q 565.83 268.939 565.83 271.035 Q 565.83 273.131 566.733 275.371 L 554.087 275.335 Q 555.279 273.42 555.279 270.204 Q 555.279 264.856 550.509 245.345 Q 545.559 224.894 542.09 220.052 L 554.918 220.052 Q 554.267 221.642 554.267 223.864 Q 554.267 226.086 554.647 228.724 Q 555.026 231.361 555.658 234.686 Q 556.291 238.01 557.086 241.804 L 562 263.411 Q 562.65 260.629 563.373 257.196 Q 565.396 247.368 566.119 243.43 L 567.347 236.528 Q 568.431 230.169 568.431 227.929 Q 568.431 225.689 568.16 223.629 Q 567.889 221.569 566.769 220.052 L 580.283 220.052 Q 578.765 222.906 578.765 226.592 Q 578.765 229.338 580.5 237.721 L 584.691 257.341 L 586.209 263.881 L 589.244 249.428 Q 590.003 245.525 590.689 241.731 L 591.918 234.722 Q 593.074 227.82 593.074 225.652 Z" transform="matrix(1.609903, -0.140848, 0.13349, 1.525795, -346.968847, -79.644365)" style="fill: rgb(255, 255, 255); paint-order: stroke; stroke: rgb(0, 0, 0); stroke-linecap: round; stroke-linejoin: round; stroke-width: 12.0842px; text-transform: uppercase; white-space: pre; filter: url(#drop-shadow-filter-0);"/>
  <path d="M 628.045 275.335 Q 628.515 273.059 628.515 271.704 Q 628.515 270.349 628.46 269.662 Q 628.406 268.976 628.316 268.199 Q 628.226 267.422 628.099 266.464 Q 627.973 265.507 627.864 264.242 Q 627.033 255.606 621.975 250.042 Q 619.734 247.585 617.133 246.302 Q 614.531 245.02 612.851 245.02 Q 611.171 245.02 610.268 245.236 Q 608.244 251.307 608.244 257.919 Q 608.244 263.772 608.858 266.663 Q 609.834 270.999 611.857 275.371 L 601.054 275.371 Q 601.921 273.203 601.921 266.248 Q 601.921 259.292 602.969 253.24 Q 604.017 247.188 605.697 242.454 Q 607.377 237.721 609.455 234.162 Q 611.532 230.603 613.61 227.947 Q 615.687 225.291 617.53 223.394 Q 619.373 221.497 620.602 220.052 L 631.983 220.052 Q 630.43 221.822 630.43 225.002 Q 630.43 226.447 630.899 229.735 L 631.803 236.312 Q 636.753 270.421 640.655 275.335 Z M 611.749 241.406 Q 613.158 240.864 614.712 240.864 Q 616.266 240.864 617.512 241.081 Q 618.759 241.298 619.987 241.804 Q 622.625 242.815 624.395 245.02 Q 622.625 235.733 622.227 233.674 L 620.963 227.351 L 618.903 229.808 Q 614.567 235.011 611.749 241.406 Z" transform="matrix(1.609903, -0.140848, 0.13349, 1.525795, -346.968847, -79.644365)" style="fill: rgb(255, 255, 255); paint-order: stroke; stroke: rgb(0, 0, 0); stroke-linecap: round; stroke-linejoin: round; stroke-width: 12.0842px; text-transform: uppercase; white-space: pre; filter: url(#drop-shadow-filter-0);"/>
  <path d="M 657.168 241.009 Q 652.977 241.009 652.977 245.959 Q 652.977 266.482 653.663 270.132 Q 654.061 272.336 654.675 273.42 L 655.759 275.335 L 642.932 275.335 Q 644.088 272.589 644.287 270.746 Q 644.485 268.903 644.63 266.808 Q 644.919 262.544 644.919 255.354 Q 644.919 246.646 644.63 239.455 L 644.232 229.519 Q 644.088 225.761 643.582 224.279 Q 642.787 221.931 640.98 220.052 L 660.095 220.052 Q 668.839 220.052 672.741 221.786 Q 676.86 223.593 676.86 227.965 Q 676.86 231.795 674.006 235.155 Q 671.332 238.263 666.996 240.105 Q 667.538 253.98 675.704 266.735 Q 679.209 272.264 682.858 275.335 L 669.309 275.335 Q 665.768 270.493 662.769 255.715 Q 661.757 250.584 661.45 247.188 Q 661.143 243.791 660.944 243.086 Q 660.745 242.382 660.312 241.948 Q 659.444 241.009 657.168 241.009 Z M 665.497 234.559 Q 665.497 234.559 665.993 234.026 Q 666.49 233.493 666.906 232.265 Q 667.321 231.036 667.321 229.898 Q 667.321 228.76 667.014 227.622 Q 666.707 226.483 665.804 225.616 Q 663.816 223.665 658.866 223.665 Q 657.023 223.665 655.885 223.81 Q 654.747 223.954 654.097 224.605 Q 652.977 225.689 652.977 230.133 Q 652.977 234.035 653.808 235.119 Q 655.289 237.034 658.288 237.034 Q 661.287 237.034 662.895 236.33 Q 664.503 235.625 665.497 234.559 Z" transform="matrix(1.609903, -0.140848, 0.13349, 1.525795, -346.968847, -79.644365)" style="fill: rgb(255, 255, 255); paint-order: stroke; stroke: rgb(0, 0, 0); stroke-linecap: round; stroke-linejoin: round; stroke-width: 12.0842px; text-transform: uppercase; white-space: pre; filter: url(#drop-shadow-filter-0);"/>
  <path d="M 696.77 241.009 Q 692.579 241.009 692.579 245.959 Q 692.579 266.482 693.265 270.132 Q 693.663 272.336 694.277 273.42 L 695.361 275.335 L 682.534 275.335 Q 683.69 272.589 683.889 270.746 Q 684.088 268.903 684.232 266.808 Q 684.521 262.544 684.521 255.354 Q 684.521 246.646 684.232 239.455 L 683.835 229.519 Q 683.69 225.761 683.184 224.279 Q 682.389 221.931 680.583 220.052 L 699.697 220.052 Q 708.441 220.052 712.344 221.786 Q 716.463 223.593 716.463 227.965 Q 716.463 231.795 713.608 235.155 Q 710.934 238.263 706.598 240.105 Q 707.14 253.98 715.306 266.735 Q 718.811 272.264 722.461 275.335 L 708.911 275.335 Q 705.37 270.493 702.371 255.715 Q 701.359 250.584 701.052 247.188 Q 700.745 243.791 700.546 243.086 Q 700.347 242.382 699.914 241.948 Q 699.047 241.009 696.77 241.009 Z M 705.099 234.559 Q 705.099 234.559 705.596 234.026 Q 706.093 233.493 706.508 232.265 Q 706.924 231.036 706.924 229.898 Q 706.924 228.76 706.616 227.622 Q 706.309 226.483 705.406 225.616 Q 703.419 223.665 698.469 223.665 Q 696.626 223.665 695.488 223.81 Q 694.349 223.954 693.699 224.605 Q 692.579 225.689 692.579 230.133 Q 692.579 234.035 693.41 235.119 Q 694.891 237.034 697.89 237.034 Q 700.889 237.034 702.497 236.33 Q 704.105 235.625 705.099 234.559 Z" transform="matrix(1.609903, -0.140848, 0.13349, 1.525795, -346.968847, -79.644365)" style="fill: rgb(255, 255, 255); paint-order: stroke; stroke: rgb(0, 0, 0); stroke-linecap: round; stroke-linejoin: round; stroke-width: 12.0842px; text-transform: uppercase; white-space: pre; filter: url(#drop-shadow-filter-0);"/>
  <path d="M 735.144 220.052 Q 733.807 223.412 733.59 226.791 Q 733.374 230.169 733.265 232.59 Q 733.157 235.011 733.084 237.612 Q 732.976 243.683 732.976 248.669 Q 732.976 269.12 734.494 273.745 Q 734.747 274.54 735.144 275.335 L 722.678 275.335 Q 723.798 272.878 724.015 270.891 Q 724.232 268.903 724.413 266.157 Q 724.846 260.484 724.846 253.077 Q 724.846 245.67 724.81 242.942 Q 724.774 240.214 724.702 237.612 Q 724.449 224.93 723.184 221.497 L 722.678 220.052 Z" transform="matrix(1.609903, -0.140848, 0.13349, 1.525795, -346.968847, -79.644365)" style="fill: rgb(255, 255, 255); paint-order: stroke; stroke: rgb(0, 0, 0); stroke-linecap: round; stroke-linejoin: round; stroke-width: 12.0842px; text-transform: uppercase; white-space: pre; filter: url(#drop-shadow-filter-0);"/>
  <path d="M 761.772 272.444 Q 768.709 272.444 770.733 255.534 Q 771.419 249.825 771.419 242.093 Q 771.419 222.942 761.7 222.942 Q 751.98 222.942 751.98 242.093 Q 751.98 264.676 757.797 270.602 Q 759.604 272.444 761.772 272.444 Z M 761.7 276.058 Q 752.088 276.058 747.21 267.024 Q 742.513 258.316 742.513 242.093 Q 742.513 225.219 752.883 220.847 Q 756.533 219.329 761.7 219.329 Q 776.514 219.329 779.802 232.481 Q 780.886 236.709 780.886 243.357 Q 780.886 250.006 779.73 256.311 Q 778.574 262.616 776.189 267.024 Q 771.311 276.058 761.7 276.058 Z" transform="matrix(1.609903, -0.140848, 0.13349, 1.525795, -346.968847, -79.644365)" style="fill: rgb(255, 255, 255); paint-order: stroke; stroke: rgb(0, 0, 0); stroke-linecap: round; stroke-linejoin: round; stroke-width: 12.0842px; text-transform: uppercase; white-space: pre; filter: url(#drop-shadow-filter-0);"/>
  <path d="M 802.056 241.009 Q 797.865 241.009 797.865 245.959 Q 797.865 266.482 798.551 270.132 Q 798.949 272.336 799.563 273.42 L 800.647 275.335 L 787.82 275.335 Q 788.976 272.589 789.175 270.746 Q 789.374 268.903 789.518 266.808 Q 789.807 262.544 789.807 255.354 Q 789.807 246.646 789.518 239.455 L 789.121 229.519 Q 788.976 225.761 788.47 224.279 Q 787.675 221.931 785.869 220.052 L 804.983 220.052 Q 813.727 220.052 817.629 221.786 Q 821.749 223.593 821.749 227.965 Q 821.749 231.795 818.894 235.155 Q 816.22 238.263 811.884 240.105 Q 812.426 253.98 820.592 266.735 Q 824.097 272.264 827.747 275.335 L 814.197 275.335 Q 810.656 270.493 807.657 255.715 Q 806.645 250.584 806.338 247.188 Q 806.031 243.791 805.832 243.086 Q 805.633 242.382 805.2 241.948 Q 804.333 241.009 802.056 241.009 Z M 810.385 234.559 Q 810.385 234.559 810.882 234.026 Q 811.378 233.493 811.794 232.265 Q 812.209 231.036 812.209 229.898 Q 812.209 228.76 811.902 227.622 Q 811.595 226.483 810.692 225.616 Q 808.705 223.665 803.754 223.665 Q 801.912 223.665 800.773 223.81 Q 799.635 223.954 798.985 224.605 Q 797.865 225.689 797.865 230.133 Q 797.865 234.035 798.696 235.119 Q 800.177 237.034 803.176 237.034 Q 806.175 237.034 807.783 236.33 Q 809.391 235.625 810.385 234.559 Z" transform="matrix(1.609903, -0.140848, 0.13349, 1.525795, -346.968847, -79.644365)" style="fill: rgb(255, 255, 255); paint-order: stroke; stroke: rgb(0, 0, 0); stroke-linecap: round; stroke-linejoin: round; stroke-width: 12.0842px; text-transform: uppercase; white-space: pre; filter: url(#drop-shadow-filter-0);"/>
</svg>